<svg width="1024" height="1024" xmlns="http://www.w3.org/2000/svg">
  <rect width="1024" height="1024" fill="#6495ED"/>
  <rect
    x="363.36"
    y="952"
    width="297.28"
    height="56"
    rx="10"
    ry="10"
    fill="rgba(255, 255, 255, 0.7)"
  />
  <g transform="translate(377.36, 962) scale(0.5625)">
    <line x1="32" y1="6" x2="32" y2="14" stroke="#7C3AED" stroke-width="3" stroke-linecap="round"/>
    <circle cx="32" cy="5" r="3" fill="#F97066"/>
    <rect x="12" y="14" width="40" height="32" rx="8" fill="#7C3AED"/>
    <circle cx="24" cy="28" r="5" fill="white"/>
    <circle cx="40" cy="28" r="5" fill="white"/>
    <circle cx="25" cy="27" r="2.5" fill="#1A1A1A"/>
    <circle cx="41" cy="27" r="2.5" fill="#1A1A1A"/>
    <rect x="22" y="37" width="20" height="4" rx="2" fill="#F97066"/>
    <rect x="4" y="24" width="6" height="12" rx="3" fill="#7C3AED" opacity="0.7"/>
    <rect x="54" y="24" width="6" height="12" rx="3" fill="#7C3AED" opacity="0.7"/>
    <rect x="22" y="48" width="20" height="10" rx="4" fill="#7C3AED" opacity="0.5"/>
  </g>
  <g><line x1="421.36" y1="988.9599999999999" x2="421.36" y2="980" stroke="#1A1A1A" stroke-width="2.8160000000000003" stroke-linecap="round"/><path d="M421.36,980 Q421.36,973.5999999999999 427.12,973.5999999999999 Q432.88,973.5999999999999 432.88,980" fill="none" stroke="#1A1A1A" stroke-width="2.8160000000000003" stroke-linecap="round"/><line x1="432.88" y1="980" x2="432.88" y2="988.9599999999999" stroke="#1A1A1A" stroke-width="2.8160000000000003" stroke-linecap="round"/><ellipse cx="441.2" cy="980" rx="4.4799999999999995" ry="7.68" fill="none" stroke="#1A1A1A" stroke-width="2.8160000000000003"/><path d="M459.76000000000005,974.88 A4.4799999999999995,7.68 0 1,0 459.76000000000005,985.1199999999999" fill="none" stroke="#7C3AED" stroke-width="2.8160000000000003" stroke-linecap="round"/><ellipse cx="469.36" cy="980" rx="4.4799999999999995" ry="7.68" fill="none" stroke="#7C3AED" stroke-width="2.8160000000000003"/><line x1="477.68" y1="988.9599999999999" x2="477.68" y2="980" stroke="#7C3AED" stroke-width="2.8160000000000003" stroke-linecap="round"/><path d="M477.68,980 Q477.68,973.5999999999999 483.44,973.5999999999999 Q489.2,973.5999999999999 489.2,980" fill="none" stroke="#7C3AED" stroke-width="2.8160000000000003" stroke-linecap="round"/><line x1="489.2" y1="980" x2="489.2" y2="988.9599999999999" stroke="#7C3AED" stroke-width="2.8160000000000003" stroke-linecap="round"/><line x1="497.52" y1="971.04" x2="497.52" y2="988.9599999999999" stroke="#7C3AED" stroke-width="2.8160000000000003" stroke-linecap="round"/><line x1="491.76" y1="974.88" x2="503.28" y2="974.88" stroke="#7C3AED" stroke-width="2.8160000000000003" stroke-linecap="round"/><path d="M516.08,978.72 A4.4799999999999995,7.68 0 1,0 516.08,985.1199999999999" fill="none" stroke="#7C3AED" stroke-width="2.8160000000000003" stroke-linecap="round"/><line x1="507.12" y1="980" x2="516.08" y2="980" stroke="#7C3AED" stroke-width="2.8160000000000003" stroke-linecap="round"/><line x1="521.2" y1="973.5999999999999" x2="530.1600000000001" y2="986.4" stroke="#7C3AED" stroke-width="2.8160000000000003" stroke-linecap="round"/><line x1="530.1600000000001" y1="973.5999999999999" x2="521.2" y2="986.4" stroke="#7C3AED" stroke-width="2.8160000000000003" stroke-linecap="round"/><line x1="539.76" y1="971.04" x2="539.76" y2="988.9599999999999" stroke="#7C3AED" stroke-width="2.8160000000000003" stroke-linecap="round"/><line x1="534" y1="974.88" x2="545.52" y2="974.88" stroke="#7C3AED" stroke-width="2.8160000000000003" stroke-linecap="round"/><line x1="548.08" y1="971.04" x2="548.08" y2="988.9599999999999" stroke="#1A1A1A" stroke-width="2.8160000000000003" stroke-linecap="round"/><path d="M548.08,980 Q560.88,974.88 559.6,980" fill="none" stroke="#1A1A1A" stroke-width="2.8160000000000003"/><path d="M548.08,980 Q560.88,985.12 559.6,980" fill="none" stroke="#1A1A1A" stroke-width="2.8160000000000003"/><ellipse cx="567.9200000000001" cy="980" rx="4.4799999999999995" ry="7.68" fill="none" stroke="#1A1A1A" stroke-width="2.8160000000000003"/><line x1="582" y1="971.04" x2="582" y2="988.9599999999999" stroke="#1A1A1A" stroke-width="2.8160000000000003" stroke-linecap="round"/><line x1="576.24" y1="974.88" x2="587.76" y2="974.88" stroke="#1A1A1A" stroke-width="2.8160000000000003" stroke-linecap="round"/><circle cx="592.24" cy="987.04" r="1.92" fill="#1A1A1A"/><path d="M614.64,974.88 A4.4799999999999995,7.68 0 1,0 614.64,985.1199999999999" fill="none" stroke="#1A1A1A" stroke-width="2.8160000000000003" stroke-linecap="round"/><ellipse cx="624.24" cy="980" rx="4.4799999999999995" ry="7.68" fill="none" stroke="#1A1A1A" stroke-width="2.8160000000000003"/><line x1="632.5600000000001" y1="988.9599999999999" x2="632.5600000000001" y2="980" stroke="#1A1A1A" stroke-width="2.8160000000000003" stroke-linecap="round"/><path d="M632.5600000000001,980 Q632.5600000000001,973.5999999999999 637.0400000000001,973.5999999999999 Q638.32,973.5999999999999 638.32,980" fill="none" stroke="#1A1A1A" stroke-width="2.8160000000000003" stroke-linecap="round"/><line x1="638.32" y1="980" x2="638.32" y2="988.9599999999999" stroke="#1A1A1A" stroke-width="2.8160000000000003" stroke-linecap="round"/><path d="M638.32,980 Q638.32,973.5999999999999 642.8000000000001,973.5999999999999 Q644.08,973.5999999999999 644.08,980" fill="none" stroke="#1A1A1A" stroke-width="2.8160000000000003" stroke-linecap="round"/><line x1="644.08" y1="980" x2="644.08" y2="988.9599999999999" stroke="#1A1A1A" stroke-width="2.8160000000000003" stroke-linecap="round"/></g>
</svg>